{
  "asset": {
    "generator": "Khronos glTF Blender I/O v1.1.45",
    "version": "2.0"
  },
  "scene": 0,
  "scenes": [
    {
      "name": "Scene",
      "nodes": [
        0,
        2,
        3,
        4,
        5
      ]
    }
  ],
  "nodes": [
    {
      "name": "Light",
      "rotation": [
        0.16907575726509094,
        0.7558803558349609,
        -0.27217137813568115,
        0.570947527885437
      ],
      "translation": [
        4.076245307922363,
        5.903861999511719,
        -1.0054539442062378
      ]
    },
    {
      "name": "skp_camera_Last_Saved_SketchUp_View",
      "rotation": [
        0.6745026111602783,
        0.0076631284318864346,
        -0.0070019010454416275,
        0.7381994724273682
      ],
      "translation": [
        12.3287992477417,
        125.17129516601562,
        299.4949035644531
      ]
    },
    {
      "children": [
        1
      ],
      "mesh": 0,
      "name": "SketchUp",
      "scale": [
        0.02539999969303608,
        0.02539999969303608,
        0.02539999969303608
      ]
    },
    {
      "mesh": 1,
      "name": "SketchUp.001",
      "scale": [
        0.02539999969303608,
        0.02539999969303608,
        0.02539999969303608
      ]
    },
    {
      "name": "SketchUp.002",
      "scale": [
        0.02539999969303608,
        0.02539999969303608,
        0.02539999969303608
      ]
    },
    {
      "name": "SketchUp.003",
      "scale": [
        0.02539999969303608,
        0.02539999969303608,
        0.02539999969303608
      ]
    }
  ],
  "materials": [
    {
      "doubleSided": true,
      "emissiveFactor": [
        0,
        0,
        0
      ],
      "name": "material",
      "pbrMetallicRoughness": {
        "baseColorFactor": [
          1,
          1,
          1,
          1
        ],
        "metallicFactor": 0,
        "roughnessFactor": 0.5
      }
    },
    {
      "doubleSided": true,
      "emissiveFactor": [
        0,
        0,
        0
      ],
      "name": "Color_D05",
      "pbrMetallicRoughness": {
        "baseColorFactor": [
          1,
          0.7490196228027344,
          0,
          1
        ],
        "metallicFactor": 0,
        "roughnessFactor": 0.5
      }
    }
  ],
  "meshes": [
    {
      "name": "ID3",
      "primitives": [
        {
          "attributes": {
            "POSITION": 0,
            "NORMAL": 1
          },
          "indices": 2,
          "material": 0
        }
      ]
    },
    {
      "name": "ID11",
      "primitives": [
        {
          "attributes": {
            "POSITION": 3,
            "NORMAL": 4
          },
          "indices": 5,
          "material": 1
        }
      ]
    }
  ],
  "accessors": [
    {
      "bufferView": 0,
      "componentType": 5126,
      "count": 327,
      "max": [
        20.918249130249023,
        70.59066009521484,
        20.918249130249023
      ],
      "min": [
        -20.918249130249023,
        35.678558349609375,
        -20.918249130249023
      ],
      "type": "VEC3"
    },
    {
      "bufferView": 1,
      "componentType": 5126,
      "count": 327,
      "type": "VEC3"
    },
    {
      "bufferView": 2,
      "componentType": 5123,
      "count": 1689,
      "type": "SCALAR"
    },
    {
      "bufferView": 3,
      "componentType": 5126,
      "count": 1014,
      "max": [
        31.74827003479004,
        115.4916000366211,
        31.74827003479004
      ],
      "min": [
        -31.74827003479004,
        29.239028930664062,
        -31.74827003479004
      ],
      "type": "VEC3"
    },
    {
      "bufferView": 4,
      "componentType": 5126,
      "count": 1014,
      "type": "VEC3"
    },
    {
      "bufferView": 5,
      "componentType": 5123,
      "count": 5394,
      "type": "SCALAR"
    }
  ],
  "bufferViews": [
    {
      "buffer": 0,
      "byteLength": 3924,
      "byteOffset": 0
    },
    {
      "buffer": 0,
      "byteLength": 3924,
      "byteOffset": 3924
    },
    {
      "buffer": 0,
      "byteLength": 3380,
      "byteOffset": 7848
    },
    {
      "buffer": 0,
      "byteLength": 12168,
      "byteOffset": 11228
    },
    {
      "buffer": 0,
      "byteLength": 12168,
      "byteOffset": 23396
    },
    {
      "buffer": 0,
      "byteLength": 10788,
      "byteOffset": 35564
    }
  ],
  "buffers": [
    {
      "uri": "vase final_data.bin",
      "byteLength": 46352
    }
  ]
}